<mxfile host="app.diagrams.net" agent="Mozilla/5.0 (Windows NT 10.0; Win64; x64) AppleWebKit/537.36 (KHTML, like Gecko) Chrome/132.0.0.0 Safari/537.36 OPR/117.0.0.0" version="26.1.0">
  <diagram name="Page-1" id="LLi3zeUxU83h0X7TtCuW">
    <mxGraphModel grid="1" page="1" gridSize="10" guides="1" tooltips="1" connect="1" arrows="1" fold="1" pageScale="1" pageWidth="850" pageHeight="1100" math="0" shadow="0">
      <root>
        <mxCell id="0" />
        <mxCell id="1" parent="0" />
        <mxCell id="1FiovFl-xC7ArpbTL3ni-1" value="" style="rounded=1;whiteSpace=wrap;html=1;" vertex="1" parent="1">
          <mxGeometry x="370" y="120" width="120" height="60" as="geometry" />
        </mxCell>
        <mxCell id="1FiovFl-xC7ArpbTL3ni-2" value="START" style="text;html=1;align=center;verticalAlign=middle;whiteSpace=wrap;rounded=0;" vertex="1" parent="1">
          <mxGeometry x="395" y="135" width="60" height="30" as="geometry" />
        </mxCell>
        <mxCell id="1FiovFl-xC7ArpbTL3ni-4" value="&lt;font style=&quot;font-size: 18px;&quot;&gt;START&lt;/font&gt;&lt;div&gt;&lt;font style=&quot;font-size: 18px;&quot;&gt;INPUT dtoan, dly, dhoa&lt;/font&gt;&lt;/div&gt;&lt;div&gt;&lt;font style=&quot;font-size: 18px;&quot;&gt;average= (dtoan+dly+dhoa)/3&lt;/font&gt;&lt;/div&gt;&lt;div&gt;&lt;font style=&quot;font-size: 18px;&quot;&gt;DISPLAY average&lt;/font&gt;&lt;/div&gt;&lt;div&gt;&lt;font style=&quot;font-size: 18px;&quot;&gt;END&lt;/font&gt;&lt;/div&gt;" style="text;html=1;align=left;verticalAlign=middle;whiteSpace=wrap;rounded=0;fillColor=default;" vertex="1" parent="1">
          <mxGeometry x="50" y="165" width="270" height="125" as="geometry" />
        </mxCell>
        <mxCell id="1FiovFl-xC7ArpbTL3ni-5" style="edgeStyle=orthogonalEdgeStyle;rounded=0;orthogonalLoop=1;jettySize=auto;html=1;exitX=1;exitY=1;exitDx=0;exitDy=0;entryX=0.983;entryY=0.947;entryDx=0;entryDy=0;entryPerimeter=0;" edge="1" parent="1" source="1FiovFl-xC7ArpbTL3ni-4" target="1FiovFl-xC7ArpbTL3ni-4">
          <mxGeometry relative="1" as="geometry" />
        </mxCell>
        <mxCell id="1FiovFl-xC7ArpbTL3ni-11" style="edgeStyle=orthogonalEdgeStyle;rounded=0;orthogonalLoop=1;jettySize=auto;html=1;" edge="1" parent="1" source="1FiovFl-xC7ArpbTL3ni-6">
          <mxGeometry relative="1" as="geometry">
            <mxPoint x="430" y="330" as="targetPoint" />
          </mxGeometry>
        </mxCell>
        <mxCell id="1FiovFl-xC7ArpbTL3ni-6" value="" style="shape=parallelogram;perimeter=parallelogramPerimeter;whiteSpace=wrap;html=1;fixedSize=1;" vertex="1" parent="1">
          <mxGeometry x="330" y="220" width="200" height="60" as="geometry" />
        </mxCell>
        <mxCell id="1FiovFl-xC7ArpbTL3ni-8" value="" style="endArrow=classic;html=1;rounded=0;exitX=0.5;exitY=1;exitDx=0;exitDy=0;entryX=0.5;entryY=0;entryDx=0;entryDy=0;" edge="1" parent="1" source="1FiovFl-xC7ArpbTL3ni-1" target="1FiovFl-xC7ArpbTL3ni-6">
          <mxGeometry width="50" height="50" relative="1" as="geometry">
            <mxPoint x="400" y="380" as="sourcePoint" />
            <mxPoint x="450" y="330" as="targetPoint" />
          </mxGeometry>
        </mxCell>
        <mxCell id="1FiovFl-xC7ArpbTL3ni-10" value="INPUT dtoan, dly, dhoa" style="text;html=1;align=center;verticalAlign=middle;whiteSpace=wrap;rounded=0;" vertex="1" parent="1">
          <mxGeometry x="360" y="235" width="140" height="30" as="geometry" />
        </mxCell>
        <mxCell id="1FiovFl-xC7ArpbTL3ni-14" style="edgeStyle=orthogonalEdgeStyle;rounded=0;orthogonalLoop=1;jettySize=auto;html=1;" edge="1" parent="1" source="1FiovFl-xC7ArpbTL3ni-12" target="1FiovFl-xC7ArpbTL3ni-15">
          <mxGeometry relative="1" as="geometry">
            <mxPoint x="430" y="430" as="targetPoint" />
          </mxGeometry>
        </mxCell>
        <mxCell id="1FiovFl-xC7ArpbTL3ni-12" value="" style="rounded=0;whiteSpace=wrap;html=1;" vertex="1" parent="1">
          <mxGeometry x="330" y="330" width="200" height="60" as="geometry" />
        </mxCell>
        <mxCell id="1FiovFl-xC7ArpbTL3ni-13" value="average= (dtoan+dly+dhhoa)/3" style="text;html=1;align=center;verticalAlign=middle;whiteSpace=wrap;rounded=0;" vertex="1" parent="1">
          <mxGeometry x="330" y="345" width="200" height="30" as="geometry" />
        </mxCell>
        <mxCell id="1FiovFl-xC7ArpbTL3ni-18" style="edgeStyle=orthogonalEdgeStyle;rounded=0;orthogonalLoop=1;jettySize=auto;html=1;entryX=0.5;entryY=0;entryDx=0;entryDy=0;" edge="1" parent="1" source="1FiovFl-xC7ArpbTL3ni-15" target="1FiovFl-xC7ArpbTL3ni-17">
          <mxGeometry relative="1" as="geometry" />
        </mxCell>
        <mxCell id="1FiovFl-xC7ArpbTL3ni-15" value="" style="rounded=0;whiteSpace=wrap;html=1;" vertex="1" parent="1">
          <mxGeometry x="370" y="430" width="120" height="60" as="geometry" />
        </mxCell>
        <mxCell id="1FiovFl-xC7ArpbTL3ni-16" value="DISPLAY average" style="text;html=1;align=center;verticalAlign=middle;whiteSpace=wrap;rounded=0;" vertex="1" parent="1">
          <mxGeometry x="370" y="445" width="120" height="30" as="geometry" />
        </mxCell>
        <mxCell id="1FiovFl-xC7ArpbTL3ni-17" value="" style="rounded=1;whiteSpace=wrap;html=1;" vertex="1" parent="1">
          <mxGeometry x="370" y="540" width="120" height="60" as="geometry" />
        </mxCell>
        <mxCell id="1FiovFl-xC7ArpbTL3ni-19" value="END" style="text;html=1;align=center;verticalAlign=middle;whiteSpace=wrap;rounded=0;" vertex="1" parent="1">
          <mxGeometry x="400" y="555" width="60" height="30" as="geometry" />
        </mxCell>
      </root>
    </mxGraphModel>
  </diagram>
</mxfile>
